<?xml version="1.0" standalone="no"?><!DOCTYPE svg PUBLIC "-//W3C//DTD SVG 1.1//EN" "http://www.w3.org/Graphics/SVG/1.1/DTD/svg11.dtd"><svg t="1672797894706" class="icon" viewBox="0 0 1024 1024" version="1.1" xmlns="http://www.w3.org/2000/svg" p-id="18667" xmlns:xlink="http://www.w3.org/1999/xlink" width="200" height="200"><path d="M930.46 993.4H94.54c-34.57 0-62.69-28.12-62.69-62.69V94.79c0-34.57 28.12-62.69 62.69-62.69h835.92c34.57 0 62.69 28.12 62.69 62.69v835.92c0 34.57-28.12 62.69-62.69 62.69zM94.54 73.89c-11.52 0-20.9 9.38-20.9 20.9v835.92c0 11.53 9.38 20.9 20.9 20.9h835.92c11.53 0 20.9-9.37 20.9-20.9V94.79c0-11.52-9.37-20.9-20.9-20.9H94.54z" p-id="18668"></path><path d="M836.42 319.44H502.05c-11.54 0-20.9-9.36-20.9-20.9s9.36-20.9 20.9-20.9h334.37c11.55 0 20.9 9.36 20.9 20.9 0 11.55-9.35 20.9-20.9 20.9zM836.42 580.67H188.58c-11.54 0-20.9-9.35-20.9-20.9s9.36-20.9 20.9-20.9h647.84c11.55 0 20.9 9.35 20.9 20.9s-9.35 20.9-20.9 20.9zM836.42 810.55H188.58c-11.54 0-20.9-9.35-20.9-20.9s9.36-20.9 20.9-20.9h647.84c11.55 0 20.9 9.35 20.9 20.9s-9.35 20.9-20.9 20.9zM272.17 423.93c-69.14 0-125.39-56.24-125.39-125.39s56.24-125.39 125.39-125.39 125.39 56.24 125.39 125.39-56.24 125.39-125.39 125.39z m0-208.98c-46.09 0-83.59 37.5-83.59 83.59s37.5 83.59 83.59 83.59 83.59-37.5 83.59-83.59-37.49-83.59-83.59-83.59z" p-id="18669"></path></svg>