<?xml version="1.0" standalone="no"?><!DOCTYPE svg PUBLIC "-//W3C//DTD SVG 1.1//EN" "http://www.w3.org/Graphics/SVG/1.1/DTD/svg11.dtd"><svg t="1672740811254" class="icon" viewBox="0 0 1024 1024" version="1.1" xmlns="http://www.w3.org/2000/svg" p-id="2608" xmlns:xlink="http://www.w3.org/1999/xlink" width="200" height="200"><path d="M928 181.333333v298.666667H896a53.333333 53.333333 0 0 0-3.498667 106.56L896 586.666667h32v298.666666h-832v-298.666666H128a53.333333 53.333333 0 0 0 3.498667-106.56L128 480H96v-298.666667h832z m-618.666667 63.978667l-149.333333 0.021333v175.061334l4.224 1.301333a117.418667 117.418667 0 0 1 80.704 101.76l0.32 5.162667 0.085333 4.714666a117.376 117.376 0 0 1-76.437333 110.016l-4.672 1.621334-4.224 1.28V821.333333l149.333333-0.021333v-576z m554.666667 0.021333l-490.666667-0.021333v576l490.666667 0.021333v-175.082666l-4.224-1.28a117.418667 117.418667 0 0 1-80.704-101.76l-0.32-5.162667L778.666667 533.333333a117.376 117.376 0 0 1 76.437333-110.016l4.672-1.621333 4.224-1.301333V245.333333z m-170.666667 352v64H490.666667v-64h202.666666z m0-192v64H490.666667v-64h202.666666z" p-id="2609"></path></svg>