<?xml version="1.0" standalone="no"?><!DOCTYPE svg PUBLIC "-//W3C//DTD SVG 1.1//EN" "http://www.w3.org/Graphics/SVG/1.1/DTD/svg11.dtd"><svg t="1672742259535" class="icon" viewBox="0 0 1024 1024" version="1.1" xmlns="http://www.w3.org/2000/svg" p-id="16262" xmlns:xlink="http://www.w3.org/1999/xlink" width="200" height="200"><path d="M435.4 871.7c-6.6-0.8-12.4-5.1-15.1-11.2l-36.1-81.9c-14.4-32.6-46.2-53-81.2-53-3.2 0-6.5 0.2-9.8 0.5l-89 9.7c-6.6 0.7-13.2-2.1-17.2-7.5-17.7-23.5-32.6-49.2-44.1-76.2-2.7-6.2-1.9-13.4 2.1-18.7l52.9-72.3c23-31.4 23-73.6 0-105L145 383.8c-3.9-5.4-4.7-12.5-2.1-18.7 11.5-27 26.4-52.6 44.1-76.2 4-5.3 10.6-8.2 17.2-7.5l89 9.7c38.7 4.2 75.3-16.9 91-52.5l36.1-81.9c2.7-6.1 8.5-10.4 15.1-11.2 14.5-1.7 29.3-2.6 44.1-2.6 14.7 0 29.5 0.9 44.1 2.6 6.6 0.8 12.4 5.1 15.1 11.2l36.1 81.9c15.7 35.6 52.3 56.7 91 52.5l89-9.7c6.6-0.7 13.2 2.2 17.2 7.5 17.7 23.5 32.6 49.2 44.1 76.2 2.6 6.2 1.8 13.4-2.1 18.7l-53 72.1c-23 31.4-23 73.6 0 105l14.8 20.3h86.8l-45.1-61.6c-4.9-6.7-4.9-15.7 0-22.3l52.9-72.3c18.5-25.2 22.3-58.8 10-87.6-13.8-32.2-31.4-62.7-52.5-90.8-18.8-24.9-49.7-38.4-80.7-35l-89 9.7c-8.2 0.9-16-3.6-19.3-11.2l-36.1-81.9C590.2 99.6 563 79.5 532 75.8c-17.3-2.1-34.9-3.1-52.4-3.1s-35.1 1-52.4 3.1c-31.1 3.7-58.2 23.8-70.8 52.4l-36.1 81.9c-3.3 7.6-11.1 12.1-19.3 11.2l-89-9.7c-31-3.4-61.9 10-80.7 35-21.1 28.1-38.8 58.6-52.5 90.8-12.3 28.8-8.5 62.4 10 87.6l52.9 72.3c4.9 6.7 4.9 15.7 0 22.3l-52.9 72.3c-18.5 25.2-22.3 58.8-10 87.6 13.8 32.2 31.4 62.7 52.5 90.8 16.9 22.4 43.5 35.5 71.2 35.5 3.2 0 6.3-0.2 9.5-0.5l89-9.7c8.2-0.9 16 3.6 19.3 11.2l36.1 81.9c12.6 28.6 39.8 48.7 70.8 52.4 17.3 2.1 34.9 3.1 52.4 3.1 5.2 0 10.4-0.1 15.6-0.3V874c-5.2 0.2-10.4 0.3-15.6 0.3-14.9 0-29.7-0.9-44.2-2.6z" p-id="16263"></path><path d="M359.7 505c0-66.9 54.4-121.3 121.3-121.3S602.3 438.1 602.3 505c0 28.9-10.1 55.4-27 76.2h81.2c10.2-23.4 15.9-49.1 15.9-76.2 0-105.5-85.8-191.3-191.3-191.3-105.5 0-191.3 85.8-191.3 191.3 0 105.5 85.8 191.3 191.3 191.3 4.7 0 9.4-0.2 14.1-0.5v-70.3c-4.6 0.5-9.3 0.8-14.1 0.8-67 0-121.4-54.4-121.4-121.3z" p-id="16264"></path><path d="M923 636.6H586.5c-19.3 0-35 15.7-35 35s15.7 35 35 35H923c19.3 0 35-15.7 35-35s-15.7-35-35-35zM923 759H586.5c-19.3 0-35 15.7-35 35s15.7 35 35 35H923c19.3 0 35-15.7 35-35s-15.7-35-35-35zM923 881.5H586.5c-19.3 0-35 15.7-35 35s15.7 35 35 35H923c19.3 0 35-15.7 35-35 0-19.4-15.7-35-35-35z" p-id="16265"></path></svg>