<?xml version="1.0" standalone="no"?><!DOCTYPE svg PUBLIC "-//W3C//DTD SVG 1.1//EN" "http://www.w3.org/Graphics/SVG/1.1/DTD/svg11.dtd"><svg t="1672741215304" class="icon" viewBox="0 0 1024 1024" version="1.1" xmlns="http://www.w3.org/2000/svg" p-id="2129" xmlns:xlink="http://www.w3.org/1999/xlink" width="200" height="200"><path d="M128 711.68H35.84c-14.336 0-25.6-11.264-25.6-25.6V102.4c0-14.336 11.264-25.6 25.6-25.6h829.44c14.336 0 25.6 11.264 25.6 25.6v81.92c0 14.336-11.264 25.6-25.6 25.6s-25.6-11.264-25.6-25.6V128H61.44v532.48h66.56c14.336 0 25.6 11.264 25.6 25.6s-11.264 25.6-25.6 25.6z" p-id="2130"></path><path d="M565.76 934.4c-6.656 0-13.312-2.56-17.92-7.68l-122.88-122.88H143.36c-14.336 0-25.6-11.264-25.6-25.6V204.8c0-14.336 11.264-25.6 25.6-25.6h844.8c14.336 0 25.6 11.264 25.6 25.6v573.44c0 14.336-11.264 25.6-25.6 25.6h-281.088l-122.88 122.88c-5.12 5.12-11.776 7.68-18.432 7.68zM168.96 752.64h266.24c6.656 0 13.312 2.56 17.92 7.68l112.64 112.64 112.64-112.64c4.608-4.608 11.264-7.68 17.92-7.68h266.24V230.4H168.96v522.24z" p-id="2131"></path><path d="M345.6 509.44m-48.64 0a48.64 48.64 0 1 0 97.28 0 48.64 48.64 0 1 0-97.28 0Z" p-id="2132"></path><path d="M565.76 509.44m-48.64 0a48.64 48.64 0 1 0 97.28 0 48.64 48.64 0 1 0-97.28 0Z" p-id="2133"></path><path d="M791.04 509.44m-48.64 0a48.64 48.64 0 1 0 97.28 0 48.64 48.64 0 1 0-97.28 0Z" p-id="2134"></path></svg>