<?xml version="1.0" standalone="no"?><!DOCTYPE svg PUBLIC "-//W3C//DTD SVG 1.1//EN" "http://www.w3.org/Graphics/SVG/1.1/DTD/svg11.dtd"><svg t="1672798246386" class="icon" viewBox="0 0 1024 1024" version="1.1" xmlns="http://www.w3.org/2000/svg" p-id="27576" xmlns:xlink="http://www.w3.org/1999/xlink" width="200" height="200"><path d="M65.024 911.104V89.984c0-4.736 4.224-8.96 8.96-8.96h747.648c4.736 0 8.96 4.224 8.96 8.96V396.8h65.024V89.984c0-40.32-33.024-73.344-73.984-73.344H73.984C33.024 16.64 0 49.664 0 89.984v820.992C0 951.296 33.024 984.32 73.984 984.32h418.432v-64.512H73.984c-5.248 0.128-8.96-3.456-8.96-8.704z" p-id="27577"></path><path d="M167.296 580.224c-17.792 0-32.512 14.208-32.512 32s14.72 32 32.512 32h129.536c17.792 0 32.512-14.208 32.512-32s-14.72-32-32.512-32H167.296zM480.768 438.144c0-17.792-14.72-32-32.512-32H167.296c-17.792 0-32.512 14.208-32.512 32s14.72 32 32.512 32h281.6c17.152 0 31.872-14.208 31.872-32zM1023.744 756.864c1.152-9.344-1.792-19.2-9.088-26.368-0.64-0.64-1.408-1.28-2.176-1.92L815.232 531.2c-12.288-12.288-32.64-12.544-45.184 0-12.544 12.544-12.288 33.024 0.384 45.568l141.056 141.056h-353.28c-22.912 0-41.728 14.208-41.728 32s18.816 32 41.728 32h359.936L770.432 929.536c-12.672 12.544-12.928 33.024-0.384 45.568 12.544 12.544 33.024 12.288 45.568-0.384l196.992-196.992c0.768-0.64 1.408-1.28 2.176-1.92 5.248-5.248 8.192-11.904 8.96-18.944zM542.08 270.336c0-17.792-14.72-32-32.512-32H167.296c-17.792 0-32.512 14.208-32.512 32s14.72 32 32.512 32h342.4c17.792 0.512 32.384-14.08 32.384-32z" p-id="27578"></path></svg>