<?xml version="1.0" standalone="no"?><!DOCTYPE svg PUBLIC "-//W3C//DTD SVG 1.1//EN" "http://www.w3.org/Graphics/SVG/1.1/DTD/svg11.dtd"><svg t="1672742710385" class="icon" viewBox="0 0 1024 1024" version="1.1" xmlns="http://www.w3.org/2000/svg" p-id="21394" xmlns:xlink="http://www.w3.org/1999/xlink" width="200" height="200"><path d="M544 768a32 32 0 1 1 0 64h-192a32 32 0 0 0-32 32v64l0.512 5.76A32 32 0 0 0 352 960h192a32 32 0 1 1 0 64H320a64 64 0 0 1-64-64v-128a64 64 0 0 1 64-64z m422.4-39.36a57.6 57.6 0 0 1 57.6 57.6V966.4a57.6 57.6 0 0 1-57.6 57.6h-180.16a57.6 57.6 0 0 1-57.6-57.6v-180.16a57.6 57.6 0 0 1 57.6-57.6H966.4zM191.488 480a32 32 0 1 1 0 64H64v320h64v-44.8c0-19.2 8.512-24 21.312-14.4l98.176 76.608c4.224 4.8 8.512 9.6 8.512 14.4v-0.064l-0.704 3.648a27.456 27.456 0 0 1-4.672 7.168l-3.2 3.584-98.112 76.608c-12.8 9.6-21.312 4.8-21.312-4.736V928H64c-35.328 0-64-28.672-63.872-64L0 861.952V544a64 64 0 0 1 64-64z m744.64 307.712h-119.68a28.8 28.8 0 0 0-28.288 23.616l-0.448 5.12v119.68c0 14.08 10.176 25.92 23.616 28.352l5.12 0.448h119.68a28.8 28.8 0 0 0 28.352-23.68l0.448-5.12v-119.68a28.8 28.8 0 0 0-28.8-28.8zM921.216 640a29.568 29.568 0 0 1 0 59.072h-193.28a28.8 28.8 0 0 0-28.8 28.8v199.04a29.568 29.568 0 0 1-59.136 0V697.6a57.6 57.6 0 0 1 57.6-57.6h223.616z m-467.2-243.968c32-16 83.968-16 115.968 0l174.016 86.976c32 16 32 41.984 0 57.984l-174.016 87.04c-32 16-83.968 16-115.968 0l-174.016-87.04c-32-16-32-41.984 0-57.984z m81.28 41.088c-16-5.504-38.08-4.736-52.288 2.368l-115.968 57.984-4.8 2.88c-11.072 8-9.472 19.008 4.8 26.176l115.968 57.984 5.696 2.368c16 5.504 38.08 4.736 52.288-2.368l115.968-57.984 4.8-2.88c11.072-8 9.472-19.008-4.8-26.176l-115.968-57.984zM874.688 37.248c12.8-9.6 21.312-4.8 21.312 4.736V96h64a64.064 64.064 0 0 1 64 60.928V480a64 64 0 0 1-64 64h-130.24a32 32 0 1 1 0-64H960v-320h-64v44.8c0 19.2-8.512 24-21.312 14.4l-98.176-76.608a40.576 40.576 0 0 1-7.808-10.816L768 128.192l0.704-3.584a40.576 40.576 0 0 1 7.808-10.752zM704 0a64 64 0 0 1 64 64v128a64 64 0 0 1-64 64H320a64 64 0 0 1-64-64V64a64 64 0 0 1 64-64z m-32 64h-320a32 32 0 0 0-32 32v64l0.512 5.76A32 32 0 0 0 352 192h320l5.76-0.512A32 32 0 0 0 704 160v-64l-0.512-5.76A32 32 0 0 0 672 64z" p-id="21395"></path></svg>