<?xml version="1.0" standalone="no"?><!DOCTYPE svg PUBLIC "-//W3C//DTD SVG 1.1//EN" "http://www.w3.org/Graphics/SVG/1.1/DTD/svg11.dtd"><svg t="1672738661505" class="icon" viewBox="0 0 1024 1024" version="1.1" xmlns="http://www.w3.org/2000/svg" p-id="4704" xmlns:xlink="http://www.w3.org/1999/xlink" width="200" height="200"><path d="M966.208 246.752L534.144 21.408a47.968 47.968 0 0 0-44.128-0.128L58.08 243.136A47.968 47.968 0 0 0 32 285.824V744.64c0 18.208 10.304 34.848 26.592 42.976l432 215.36a48 48 0 0 0 42.816 0l432-215.36A48 48 0 0 0 992 744.672V289.344c0-17.92-9.952-34.304-25.792-42.592zM508.384 463.68l-162.176-79.808 367.36-196.704 158.4 82.624-363.584 193.888z m3.488-381.696l132.992 69.376-369.312 197.76-144.896-71.328 381.216-195.808zM96 332.096l153.216 75.392v168.256a32 32 0 0 0 64 0v-136.736L480 521.024v405.184L96 734.752V332.096z m448 594.112V517.184l384-204.736v422.304l-384 191.456z" p-id="4705"></path></svg>