<?xml version="1.0" standalone="no"?><!DOCTYPE svg PUBLIC "-//W3C//DTD SVG 1.1//EN" "http://www.w3.org/Graphics/SVG/1.1/DTD/svg11.dtd"><svg t="1672797430445" class="icon" viewBox="0 0 1024 1024" version="1.1" xmlns="http://www.w3.org/2000/svg" p-id="4753" xmlns:xlink="http://www.w3.org/1999/xlink" width="200" height="200"><path d="M803.8 292.9h87.5c37.6 0 68.1-30.5 68.1-68.1v-87.5c0-37.6-30.5-68.1-68.1-68.1h-87.5c-37.6 0-68.1 30.5-68.1 68.1v31.2H314l-53.9-53.9c-4.7-4.7-12.2-4.7-16.9 0l-53.9 53.9h-41.4c-46.7 0-84.6 38-84.6 84.7v176.3c0 46.7 38 84.7 84.6 84.7h96.2v52.5c0 13.5 7 25.6 18.7 32.4 5.9 3.4 12.3 5.1 18.7 5.1 6.4 0 12.9-1.7 18.7-5.1l115.3-66.6c3.9-2.2 7-5.3 9.8-8.5L527 582.7c12.3 7.1 27.8-1.8 27.8-16v-52.5h319.9c25.8 0 46.8 21 46.8 46.8v240.2c0 25.8-21 46.8-46.8 46.8h-85v-24.8c0-27.2-22-49.2-49.2-49.2H131.4c-27.2 0-49.2 22-49.2 49.2v87.5c0 27.2 22 49.2 49.2 49.2h609.3c27.2 0 49.2-22 49.2-49.2v-24.8h85c46.7 0 84.6-38 84.6-84.6V561c0-46.7-38-84.7-84.6-84.7h-320v-42.8c0-14.2-15.4-23.1-27.8-16l-101.7 58.7c-2.8-3.3-5.9-6.3-9.8-8.5L300.2 401c-11.7-6.8-25.7-6.7-37.4 0-11.7 6.8-18.7 18.9-18.7 32.4v42.8h-96.2c-25.8 0-46.8-21-46.8-46.8V253.2c0-25.8 21-46.8 46.8-46.8h54.2l41.2 41.2c4.7 4.7 12.2 4.7 16.9 0l41.2-41.2h434.4v18.4c-0.1 37.6 30.5 68.1 68 68.1z m117.8-155.6v87.5c0 16.7-13.6 30.3-30.3 30.3h-87.5l117.3-122.2c0.2 1.5 0.5 2.9 0.5 4.4z m-148 0c0-16.7 13.6-30.3 30.3-30.3h87.5c0.7 0 1.3 0.2 1.9 0.2l-119 123.9c-0.4-2.1-0.7-4.2-0.7-6.4v-87.4zM396.7 499.7l9.4 16.4-9.4-16.4-114.7 67-0.6-132.8 115.3 65.8z" p-id="4754"></path></svg>