<?xml version="1.0" standalone="no"?><!DOCTYPE svg PUBLIC "-//W3C//DTD SVG 1.1//EN" "http://www.w3.org/Graphics/SVG/1.1/DTD/svg11.dtd"><svg t="1672797643866" class="icon" viewBox="0 0 1024 1024" version="1.1" xmlns="http://www.w3.org/2000/svg" p-id="11050" xmlns:xlink="http://www.w3.org/1999/xlink" width="200" height="200"><path d="M64 480h352V128H64v352z m64-288h224v224H128V192zM64 928h352V576H64v352z m64-288h224v224H128v-224zM526.848 224H928a32 32 0 1 0 0-64H526.848a32 32 0 0 0 0 64zM928 608H526.848a32 32 0 1 0 0 64H928a32 32 0 1 0 0-64zM928 384H526.848a32 32 0 0 0 0 64H928a32 32 0 1 0 0-64zM928 832H526.848a32 32 0 1 0 0 64H928a32 32 0 1 0 0-64z" p-id="11051"></path></svg>