<?xml version="1.0" standalone="no"?><!DOCTYPE svg PUBLIC "-//W3C//DTD SVG 1.1//EN" "http://www.w3.org/Graphics/SVG/1.1/DTD/svg11.dtd"><svg t="1690253584089" class="icon" viewBox="0 0 1024 1024" version="1.1" xmlns="http://www.w3.org/2000/svg" p-id="2586" xmlns:xlink="http://www.w3.org/1999/xlink" width="200" height="200"><path d="M885.43232 59.4944H138.06592c-63.3088 0-114.82624 51.52256-114.82624 114.82624v679.25504c0 63.3088 51.52256 114.83136 114.82624 114.83136h747.36128c63.3088 0 114.83136-51.52256 114.83136-114.83136V174.32064c0-63.30368-51.51744-114.82624-114.82624-114.82624z m79.0016 794.08128c0 43.56608-35.44064 79.00672-79.00672 79.00672H138.06592c-43.56096 0-79.00672-35.44064-79.00672-79.00672V174.32064c0-43.56096 35.44064-79.0016 79.00672-79.0016h747.36128c43.56608 0 79.00672 35.44064 79.00672 79.0016v679.25504z" p-id="2587"></path><path d="M31.64672 257.60768h953.5488v36.25984H31.64672zM127.47776 189.64992a30.10048 30.10048 0 1 0 57.4464-18.00704 30.10048 30.10048 0 0 0-57.4464 18.00704zM225.98144 189.64992a30.10048 30.10048 0 1 0 57.4464-18.00704 30.10048 30.10048 0 0 0-57.4464 18.00704zM324.48 189.64992a30.10048 30.10048 0 1 0 57.4464-18.00704 30.10048 30.10048 0 0 0-57.4464 18.00704zM340.02944 788.11648a174.976 174.976 0 0 1-103.99232-48.9728c-33.8944-32.88064-53.01248-77.17376-53.64224-124.29824-0.6144-47.29344 17.024-91.91936 50.0736-125.79328a175.40608 175.40608 0 0 1 96.93696-51.06176c14.53056-2.53952 27.50464 9.37472 27.71456 24.0128 0.1024 12.3136-8.832 22.4-21.01248 24.65792a125.5936 125.5936 0 0 0-68.46976 36.65408c-23.84896 24.5248-36.59264 56.84224-36.16256 90.9312 0.43008 34.08384 14.27968 66.05824 38.8096 89.9072 24.5248 23.84896 56.83712 36.59776 90.92608 36.16256 34.08896-0.41984 66.05824-14.27968 89.91232-38.79936 23.84384-24.5248 36.59264-56.84224 36.16256-90.9312-1.43872-97.65376 76.90752-177.98656 174.38208-179.4304 47.11936-0.63488 91.9296 17.01888 125.80352 50.0736 33.87904 32.88064 53.00736 77.17376 53.632 124.30336 0.60928 47.29344-17.01376 91.91424-50.06848 125.78816-26.46528 27.27424-60.26752 44.85632-96.94208 51.06688-14.53568 2.5344-27.50464-9.37984-27.71968-24.0128-0.09728-12.3136 8.83712-22.40512 21.01248-24.6528a125.63456 125.63456 0 0 0 68.48-36.65408c23.84384-24.52992 36.58752-56.84736 36.16256-90.9312-0.42496-34.08384-14.27456-66.05824-38.80448-89.91232-28.89728-28.06272-68.5056-40.87808-109.2864-34.57536-64.14336 9.6768-106.7008 68.90496-107.8016 133.84704-0.768 45.184-18.3552 87.66976-50.02752 120.27392-32.87552 33.88928-77.17376 53.00224-124.30336 53.63712-7.27552-0.26112-14.55616-0.512-21.77536-1.29024z" p-id="2588"></path></svg>