<?xml version="1.0" standalone="no"?><!DOCTYPE svg PUBLIC "-//W3C//DTD SVG 1.1//EN" "http://www.w3.org/Graphics/SVG/1.1/DTD/svg11.dtd"><svg t="1672741717823" class="icon" viewBox="0 0 1024 1024" version="1.1" xmlns="http://www.w3.org/2000/svg" p-id="8489" xmlns:xlink="http://www.w3.org/1999/xlink" width="200" height="200"><path d="M924.392727 599.04h-111.709091a46.545455 46.545455 0 0 0 0-7.912727 157.556364 157.556364 0 0 0-102.167272-118.458182 33.745455 33.745455 0 0 0-9.541819-1.396364H546.909091v-46.545454h111.709091a34.909091 34.909091 0 0 0 34.909091-34.909091V96.814545a34.909091 34.909091 0 0 0-34.909091-34.90909H365.381818a34.909091 34.909091 0 0 0-34.909091 34.90909v293.236364a34.909091 34.909091 0 0 0 34.909091 34.909091h111.709091v46.545455h-159.883636c-80.989091 4.887273-103.098182 108.916364-105.425455 120.785454a33.047273 33.047273 0 0 0 0 6.749091H99.607273a34.909091 34.909091 0 0 0-34.909091 34.909091v293.236364a34.909091 34.909091 0 0 0 34.909091 34.90909h293.236363a34.909091 34.909091 0 0 0 34.909091-34.90909v-293.236364a34.909091 34.909091 0 0 0-34.909091-34.909091h-110.778181c5.818182-23.272727 20.712727-56.785455 37.236363-57.949091h374.690909a90.530909 90.530909 0 0 1 46.545455 57.949091h-109.381818a34.909091 34.909091 0 0 0-34.909091 34.909091v293.236364a34.909091 34.909091 0 0 0 34.909091 34.90909h293.236363a34.909091 34.909091 0 0 0 34.909091-34.90909v-293.236364a34.909091 34.909091 0 0 0-34.909091-34.909091zM400.290909 131.723636h223.418182v223.418182h-223.418182z m-42.356364 760.552728h-223.418181v-223.418182h223.418181z m531.549091 0h-223.418181v-223.418182h223.418181z" p-id="8490"></path></svg>