<?xml version="1.0" standalone="no"?><!DOCTYPE svg PUBLIC "-//W3C//DTD SVG 1.1//EN" "http://www.w3.org/Graphics/SVG/1.1/DTD/svg11.dtd"><svg t="1672741778227" class="icon" viewBox="0 0 1024 1024" version="1.1" xmlns="http://www.w3.org/2000/svg" p-id="8671" xmlns:xlink="http://www.w3.org/1999/xlink" width="200" height="200"><path d="M973.312 456.192H61.44c-14.336 0-25.6-11.264-25.6-25.6V233.472c0-14.336 11.264-25.6 25.6-25.6h911.872c14.336 0 25.6 11.264 25.6 25.6v197.12c0 14.336-11.264 25.6-25.6 25.6zM87.04 404.992h860.672V259.072H87.04v145.92z" p-id="8672"></path><path d="M973.312 949.76H61.44c-14.336 0-25.6-11.264-25.6-25.6V430.592c0-14.336 11.264-25.6 25.6-25.6h911.872c14.336 0 25.6 11.264 25.6 25.6v493.568c0 14.336-11.264 25.6-25.6 25.6zM87.04 898.56h860.672V456.192H87.04v442.368z" p-id="8673"></path><path d="M636.928 695.296H473.6c2.56 38.4 25.6 57.856 69.632 57.856 27.136 0 51.712-6.656 72.704-19.968v53.248c-22.528 12.8-52.224 18.944-89.088 18.944-39.424 0-70.144-11.264-92.16-33.28-22.016-22.528-32.768-53.248-32.768-93.184 0-39.424 11.776-71.68 34.816-96.768 23.552-24.576 52.736-37.376 88.064-37.376 35.328 0 62.464 10.752 82.432 31.744 19.968 21.504 29.696 50.688 29.696 88.064v30.72z m-67.584-45.568c0-36.864-14.848-55.808-45.056-55.808-12.288 0-23.552 5.12-32.768 15.36-9.728 10.24-15.36 23.552-17.92 40.448h95.744z" p-id="8674"></path><path d="M857.088 334.336m-26.624 0a26.624 26.624 0 1 0 53.248 0 26.624 26.624 0 1 0-53.248 0Z" p-id="8675"></path><path d="M766.976 334.336m-26.624 0a26.624 26.624 0 1 0 53.248 0 26.624 26.624 0 1 0-53.248 0Z" p-id="8676"></path></svg>