<?xml version="1.0" encoding="UTF-8"?>
<!DOCTYPE svg PUBLIC "-//W3C//DTD SVG 1.1//EN" "http://www.w3.org/Graphics/SVG/1.1/DTD/svg11.dtd">
<svg xmlns="http://www.w3.org/2000/svg" version="1.1" width="1339px" height="1340px" style="shape-rendering:geometricPrecision; text-rendering:geometricPrecision; image-rendering:optimizeQuality; fill-rule:evenodd; clip-rule:evenodd" xmlns:xlink="http://www.w3.org/1999/xlink">
<g><path style="opacity:0.999" fill="#80b02a" d="M 306.5,-0.5 C 547.5,-0.5 788.5,-0.5 1029.5,-0.5C 1144.4,21.2849 1231.57,82.2849 1291,182.5C 1328.82,252.784 1344.32,327.784 1337.5,407.5C 1306.2,414.45 1274.87,421.95 1243.5,430C 1182.14,447.687 1120.81,465.354 1059.5,483C 1035.24,488.988 1010.9,494.655 986.5,500C 972.095,502.873 957.595,505.04 943,506.5C 922.438,506.89 907.104,498.224 897,480.5C 888.177,462.174 877.844,444.841 866,428.5C 837.723,396.781 802.223,379.614 759.5,377C 680.584,371.48 606.917,388.48 538.5,428C 526.877,439.738 518.711,453.571 514,469.5C 512.969,474.099 512.469,478.765 512.5,483.5C 515.421,518.044 519.921,552.377 526,586.5C 535.647,621.755 544.98,657.089 554,692.5C 565.422,734.97 592.588,750.803 635.5,740C 648.438,737.135 660.438,732.135 671.5,725C 686.024,711.419 690.524,694.919 685,675.5C 679.538,654.781 673.872,634.114 668,613.5C 666.562,605.704 665.395,597.871 664.5,590C 663.653,581.512 667.32,577.845 675.5,579C 676.333,579.833 677.167,580.667 678,581.5C 682.201,593.103 686.201,604.77 690,616.5C 723.327,751.492 756.327,886.492 789,1021.5C 797.296,1043.41 813.129,1052.57 836.5,1049C 858.443,1046.82 880.109,1043.15 901.5,1038C 977.135,1008.94 1012.63,953.776 1008,872.5C 1006.38,862.819 1005.05,853.153 1004,843.5C 1012.93,834.116 1023.76,827.949 1036.5,825C 1137.25,801.228 1237.59,776.062 1337.5,749.5C 1337.67,830.167 1337.5,910.834 1337,991.5C 1326.8,1106.11 1275.97,1197.61 1184.5,1266C 1126.14,1307.12 1061.14,1329.79 989.5,1334C 775.5,1334.67 561.5,1334.67 347.5,1334C 219.615,1324.01 121.115,1265.51 52,1158.5C 22.5623,1109.35 5.06228,1056.35 -0.5,999.5C -0.5,776.167 -0.5,552.833 -0.5,329.5C 13.2432,212.791 68.2432,121.291 164.5,55C 208.211,27.1533 255.545,8.65334 306.5,-0.5 Z"/></g>
<g><path style="opacity:1" fill="#fefefe" d="M 553.5,187.5 C 608.894,184.893 660.894,196.726 709.5,223C 729.349,234.503 747.182,248.67 763,265.5C 766.333,270.5 766.333,275.5 763,280.5C 760.487,282.923 757.487,284.256 754,284.5C 701.341,263.733 647.174,258.9 591.5,270C 582.847,271.942 574.181,273.775 565.5,275.5C 571.013,300.219 576.846,324.886 583,349.5C 586.983,371.034 578.817,385.868 558.5,394C 551.098,395.35 543.765,397.017 536.5,399C 514.797,401.731 500.964,392.564 495,371.5C 490.49,351.792 485.823,332.125 481,312.5C 480.586,312.043 480.086,311.709 479.5,311.5C 447.836,328.994 418.836,350.161 392.5,375C 388.33,377.788 383.997,378.121 379.5,376C 355.264,351.101 331.764,325.601 309,299.5C 308.183,296.036 308.517,292.702 310,289.5C 379.668,228.427 460.834,194.427 553.5,187.5 Z"/></g>
<g><path style="opacity:1" fill="#fafcfd" d="M 1337.5,407.5 C 1337.83,407.5 1338.17,407.5 1338.5,407.5C 1338.5,521.5 1338.5,635.5 1338.5,749.5C 1338.17,749.5 1337.83,749.5 1337.5,749.5C 1237.59,776.062 1137.25,801.228 1036.5,825C 1023.76,827.949 1012.93,834.116 1004,843.5C 1005.05,853.153 1006.38,862.819 1008,872.5C 1012.63,953.776 977.135,1008.94 901.5,1038C 880.109,1043.15 858.443,1046.82 836.5,1049C 813.129,1052.57 797.296,1043.41 789,1021.5C 756.327,886.492 723.327,751.492 690,616.5C 686.201,604.77 682.201,593.103 678,581.5C 677.167,580.667 676.333,579.833 675.5,579C 667.32,577.845 663.653,581.512 664.5,590C 665.395,597.871 666.562,605.704 668,613.5C 673.872,634.114 679.538,654.781 685,675.5C 690.524,694.919 686.024,711.419 671.5,725C 660.438,732.135 648.438,737.135 635.5,740C 592.588,750.803 565.422,734.97 554,692.5C 544.98,657.089 535.647,621.755 526,586.5C 519.921,552.377 515.421,518.044 512.5,483.5C 512.469,478.765 512.969,474.099 514,469.5C 518.711,453.571 526.877,439.738 538.5,428C 606.917,388.48 680.584,371.48 759.5,377C 802.223,379.614 837.723,396.781 866,428.5C 877.844,444.841 888.177,462.174 897,480.5C 907.104,498.224 922.438,506.89 943,506.5C 957.595,505.04 972.095,502.873 986.5,500C 1010.9,494.655 1035.24,488.988 1059.5,483C 1120.81,465.354 1182.14,447.687 1243.5,430C 1274.87,421.95 1306.2,414.45 1337.5,407.5 Z"/></g>
<g><path style="opacity:1" fill="#f2f7ef" d="M 439.5,463.5 C 465.36,460.165 482.86,470.498 492,494.5C 498.371,516.798 500.038,539.465 497,562.5C 492.706,587.796 478.206,603.962 453.5,611C 425.296,617.717 397.296,625.05 369.5,633C 356.635,635.886 343.635,636.886 330.5,636C 314.831,632.761 303.664,623.928 297,609.5C 286.161,584.861 288.828,561.861 305,540.5C 312.144,533.024 319.644,525.857 327.5,519C 356.435,497.861 387.769,480.861 421.5,468C 427.581,466.29 433.581,464.79 439.5,463.5 Z"/></g>
<g><path style="opacity:1" fill="#f5f9f4" d="M 473.5,648.5 C 495.891,644.893 513.058,652.56 525,671.5C 539.432,697.541 544.432,725.207 540,754.5C 535.042,765.457 526.875,772.957 515.5,777C 475.099,785.767 435.099,796.1 395.5,808C 367.785,813.06 348.618,802.56 338,776.5C 329.162,754.312 325.495,731.312 327,707.5C 331.208,690.96 341.708,680.794 358.5,677C 397.01,667.622 435.344,658.122 473.5,648.5 Z"/></g>
<g><path style="opacity:1" fill="#f5f9f4" d="M 653.5,778.5 C 673.328,775.667 688.495,782.667 699,799.5C 712.668,825.148 717.002,852.148 712,880.5C 705.111,894.709 693.944,903.876 678.5,908C 595.32,927.545 512.32,947.878 429.5,969C 402.877,972.722 385.044,961.889 376,936.5C 370.608,920.932 367.441,904.932 366.5,888.5C 366.567,862.273 379.233,845.773 404.5,839C 465.169,824.666 525.836,810.333 586.5,796C 609.068,790.462 631.402,784.629 653.5,778.5 Z"/></g>
<g><path style="opacity:1" fill="#f5f9f4" d="M 607.5,965.5 C 619.385,964.736 631.052,965.903 642.5,969C 653.779,973.384 662.279,980.884 668,991.5C 677.29,1008.49 682.457,1026.66 683.5,1046C 683.374,1068.46 672.707,1083.46 651.5,1091C 628.256,1097.98 604.923,1104.64 581.5,1111C 552.704,1119.68 523.371,1122.35 493.5,1119C 452.091,1110.92 427.258,1086.09 419,1044.5C 415.436,1031.46 418.936,1020.96 429.5,1013C 436.72,1008.7 444.386,1005.37 452.5,1003C 504.143,989.671 555.81,977.171 607.5,965.5 Z"/></g>
<g><path style="opacity:1" fill="#f5f9f4" d="M 713.5,1078.5 C 722.506,1078.33 731.506,1078.5 740.5,1079C 750.478,1081.64 757.311,1087.81 761,1097.5C 764.515,1111.89 768.182,1126.23 772,1140.5C 776.095,1151.9 773.595,1161.4 764.5,1169C 744.06,1179.35 722.394,1184.02 699.5,1183C 690.604,1181.11 684.437,1175.94 681,1167.5C 677,1150.17 673,1132.83 669,1115.5C 666.582,1103.51 670.748,1094.67 681.5,1089C 691.859,1084.16 702.526,1080.66 713.5,1078.5 Z"/></g>
</svg>
