<?xml version="1.0" standalone="no"?><!DOCTYPE svg PUBLIC "-//W3C//DTD SVG 1.1//EN" "http://www.w3.org/Graphics/SVG/1.1/DTD/svg11.dtd"><svg t="1672798447251" class="icon" viewBox="0 0 1024 1024" version="1.1" xmlns="http://www.w3.org/2000/svg" p-id="35729" xmlns:xlink="http://www.w3.org/1999/xlink" width="200" height="200"><path d="M792.278054 1024H231.849057A232.103277 232.103277 0 0 1 0 792.150943V231.849057A232.103277 232.103277 0 0 1 231.849057 0h560.428997a232.103277 232.103277 0 0 1 231.721946 231.849057v560.301886a232.103277 232.103277 0 0 1-231.721946 231.849057zM231.849057 127.110228A104.865938 104.865938 0 0 0 127.110228 231.849057v560.301886a104.865938 104.865938 0 0 0 104.738829 104.738829h560.428997a104.738828 104.738828 0 0 0 104.611718-104.738829V231.849057A104.865938 104.865938 0 0 0 792.278054 127.110228z" p-id="35730"></path><path d="M779.821251 327.817279H578.60576a44.48858 44.48858 0 0 1 0-88.97716h201.215491a44.48858 44.48858 0 0 1 0 88.97716zM779.821251 555.217478H578.60576a44.48858 44.48858 0 0 1 0-88.97716h201.215491a44.48858 44.48858 0 0 1 0 88.97716zM779.821251 782.490566H578.60576a44.48858 44.48858 0 0 1 0-88.97716h201.215491a44.48858 44.48858 0 0 1 0 88.97716zM321.080437 415.142006A91.900695 91.900695 0 1 1 228.798411 507.042701a91.900695 91.900695 0 0 1 91.900695-91.900695m0-63.555114a155.455809 155.455809 0 1 0 155.83714 155.455809 155.455809 155.455809 0 0 0-155.455809-155.455809z" p-id="35731"></path></svg>