<?xml version="1.0" standalone="no"?><!DOCTYPE svg PUBLIC "-//W3C//DTD SVG 1.1//EN" "http://www.w3.org/Graphics/SVG/1.1/DTD/svg11.dtd"><svg t="1672738577736" class="icon" viewBox="0 0 1024 1024" version="1.1" xmlns="http://www.w3.org/2000/svg" p-id="4561" xmlns:xlink="http://www.w3.org/1999/xlink" width="200" height="200"><path d="M896 806.08a32 32 0 0 1 64 0v73.92a48 48 0 0 1-48 48h-800A48 48 0 0 1 64 880v-736A48 48 0 0 1 112 96h800A48 48 0 0 1 960 144v166.144H128V864h768v-57.92z m0-559.936V160H128v86.144h768z" p-id="4562"></path><path d="M641.92 405.056a32 32 0 0 1 60.16 21.888l-128 352a32 32 0 0 1-60.16-21.888l128-352zM776.192 469.408a32 32 0 0 1 47.616-42.816l126.432 140.64a32 32 0 0 1 0 42.784l-126.432 140.64a32 32 0 1 1-47.616-42.784l107.232-119.232-107.2-119.232zM438.24 469.408a32 32 0 1 0-47.584-42.816l-126.464 140.64a32 32 0 0 0 0 42.784l126.464 140.64a32 32 0 1 0 47.584-42.784l-107.2-119.232 107.2-119.232z" p-id="4563"></path></svg>