<?xml version="1.0" standalone="no"?><!DOCTYPE svg PUBLIC "-//W3C//DTD SVG 1.1//EN" "http://www.w3.org/Graphics/SVG/1.1/DTD/svg11.dtd"><svg t="1672742443669" class="icon" viewBox="0 0 1024 1024" version="1.1" xmlns="http://www.w3.org/2000/svg" p-id="19262" xmlns:xlink="http://www.w3.org/1999/xlink" width="200" height="200"><path d="M665.4 532.8c-20.9-10.8-42.9-19.6-65.8-26.4 85.1-44.7 139.5-140 122.7-246C706.1 158 620.8 77.1 517.8 65.5 376.1 49.6 256 160.1 256 298.7c0 90.3 51.1 168.6 126 207.9-159.1 46.9-275.3 193.9-275.3 368.1 0 23.3 2.3 46.1 6.3 68.2 1.8 10 10.8 17.1 21 17.1h0.1c13.3 0 23.3-12 20.9-25.1-10.8-58-7.4-120.9 21.1-187.2 50.3-117 158.4-202.2 285.3-213.1 70.5-6.1 136.6 10.1 193.3 41.4 23.7 0 31.9-32.3 10.7-43.2zM458.1 488c-79.5-13.1-143.6-77.3-156.7-156.7C279.7 200 392 87.7 523.2 109.4c79.5 13.1 143.6 77.2 156.7 156.7 21.8 131.2-90.6 243.6-221.8 221.9zM640 704h256c11.8 0 21.3-9.6 21.3-21.3 0-11.8-9.6-21.3-21.3-21.3H640c-11.8 0-21.3 9.6-21.3 21.3 0 11.7 9.5 21.3 21.3 21.3zM640 810.7h256c11.8 0 21.3-9.6 21.3-21.3 0-11.8-9.6-21.3-21.3-21.3H640c-11.8 0-21.3 9.6-21.3 21.3 0 11.7 9.5 21.3 21.3 21.3zM640 917.3h256c11.8 0 21.3-9.6 21.3-21.3 0-11.8-9.6-21.3-21.3-21.3H640c-11.8 0-21.3 9.6-21.3 21.3 0 11.8 9.5 21.3 21.3 21.3z" p-id="19263"></path></svg>