<?xml version="1.0" standalone="no"?><!DOCTYPE svg PUBLIC "-//W3C//DTD SVG 1.1//EN" "http://www.w3.org/Graphics/SVG/1.1/DTD/svg11.dtd"><svg t="1672741465897" class="icon" viewBox="0 0 1024 1024" version="1.1" xmlns="http://www.w3.org/2000/svg" p-id="3100" xmlns:xlink="http://www.w3.org/1999/xlink" width="200" height="200"><path d="M321 640H129c-35.3 0-64 28.7-64 64v192c0 35.3 28.7 64 64 64h192c35.3 0 64-28.7 64-64V704c0-35.3-28.7-64-64-64zM896 640H704c-35.3 0-64 28.7-64 64v192c0 35.3 28.7 64 64 64h192c35.3 0 64-28.7 64-64V704c0-35.3-28.7-64-64-64zM784 640h32V496c0-17.7-14.3-32-32-32H528v-80h80c35.3 0 64-28.7 64-64V128c0-35.3-28.7-64-64-64H416c-35.3 0-64 28.7-64 64v192c0 35.3 28.7 64 64 64h80v80H240c-17.7 0-32 14.3-32 32v144h32V496h544v144zM416 352c-17.6 0-32-14.4-32-32V128c0-17.6 14.4-32 32-32h192c17.6 0 32 14.4 32 32v192c0 17.6-14.4 32-32 32H416z" p-id="3101"></path></svg>