<?xml version="1.0" standalone="no"?><!DOCTYPE svg PUBLIC "-//W3C//DTD SVG 1.1//EN" "http://www.w3.org/Graphics/SVG/1.1/DTD/svg11.dtd"><svg t="1672741109688" class="icon" viewBox="0 0 1024 1024" version="1.1" xmlns="http://www.w3.org/2000/svg" p-id="1952" xmlns:xlink="http://www.w3.org/1999/xlink" width="200" height="200"><path d="M522.24 593.92c-84.48 0-153.088-68.608-153.088-153.088S437.76 287.744 522.24 287.744s153.088 68.608 153.088 153.088S606.72 593.92 522.24 593.92z m0-254.976c-56.32 0-101.888 45.568-101.888 101.888S465.92 542.72 522.24 542.72s101.888-45.568 101.888-101.888S578.56 338.944 522.24 338.944z" p-id="1953"></path><path d="M519.68 320c-14.336 0-25.6-11.264-25.6-25.6v-46.08c0-14.336 11.264-25.6 25.6-25.6s25.6 11.264 25.6 25.6v46.08c0 14.336-11.264 25.6-25.6 25.6zM416.768 362.496c-6.656 0-13.312-2.56-18.432-7.68l-32.256-33.28c-9.728-10.24-9.728-26.112 0.512-36.352 10.24-9.728 26.112-9.728 36.352 0.512l32.256 33.28c9.728 10.24 9.728 26.112-0.512 36.352-5.12 4.608-11.264 7.168-17.92 7.168zM376.32 468.48h-46.08c-14.336 0-25.6-11.264-25.6-25.6s11.264-25.6 25.6-25.6h46.08c14.336 0 25.6 11.264 25.6 25.6s-11.264 25.6-25.6 25.6zM385.536 604.16c-6.656 0-13.312-2.56-18.432-7.68-9.728-10.24-9.728-26.112 0.512-36.352l33.28-32.768c10.24-9.728 26.112-9.728 36.352 0.512 9.728 10.24 9.728 26.112-0.512 36.352l-33.28 32.768c-5.12 4.608-11.264 7.168-17.92 7.168zM524.8 663.04c-14.336 0-25.6-11.264-25.6-25.6v-51.2c0-14.336 11.264-25.6 25.6-25.6s25.6 11.264 25.6 25.6v51.2c0 14.336-11.264 25.6-25.6 25.6zM660.48 603.136c-6.656 0-13.312-2.56-18.432-7.68l-32.768-33.28c-9.728-10.24-9.728-26.112 0.512-36.352 10.24-9.728 26.112-9.728 36.352 0.512l32.768 33.28c9.728 10.24 9.728 26.112-0.512 36.352-5.12 4.608-11.264 7.168-17.92 7.168zM719.36 463.36h-51.2c-14.336 0-25.6-11.264-25.6-25.6s11.264-25.6 25.6-25.6h51.2c14.336 0 25.6 11.264 25.6 25.6s-11.264 25.6-25.6 25.6zM626.176 360.96c-6.656 0-13.312-2.56-18.432-7.68-9.728-10.24-9.728-26.112 0.512-36.352l33.28-32.768c10.24-9.728 26.112-9.728 36.352 0.512 9.728 10.24 9.728 26.112-0.512 36.352l-33.28 32.768c-5.12 4.608-11.264 7.168-17.92 7.168z" p-id="1954"></path><path d="M514.56 936.448c-6.656 0-13.312-2.56-17.92-7.68L355.84 788.48H35.84c-14.336 0-25.6-11.264-25.6-25.6V112.64c0-14.336 11.264-25.6 25.6-25.6h957.44c14.336 0 25.6 11.264 25.6 25.6v650.24c0 14.336-11.264 25.6-25.6 25.6h-320L532.48 928.768c-4.608 5.12-11.264 7.68-17.92 7.68zM61.44 737.28h305.152c6.656 0 13.312 2.56 17.92 7.68l130.048 130.048 130.048-130.048c4.608-4.608 11.264-7.68 17.92-7.68H967.68V138.24H61.44v599.04z" p-id="1955"></path></svg>