<?xml version="1.0" standalone="no"?><!DOCTYPE svg PUBLIC "-//W3C//DTD SVG 1.1//EN" "http://www.w3.org/Graphics/SVG/1.1/DTD/svg11.dtd"><svg t="1672797268500" class="icon" viewBox="0 0 1024 1024" version="1.1" xmlns="http://www.w3.org/2000/svg" p-id="4612" xmlns:xlink="http://www.w3.org/1999/xlink" width="200" height="200"><path d="M427.78 315h410.31a88.1 88.1 0 0 0 88-88v-64.6a88.1 88.1 0 0 0-88-88H427.78a88.1 88.1 0 0 0-88 88v8.5h-126A116 116 0 0 0 97.91 286.73v144.41A116 116 0 0 0 213.74 547h150a24.14 24.14 0 0 0 7.16-1.08c15.31 63.69 72.75 111.21 141.1 111.21s125.79-47.52 141.06-111.25a24.14 24.14 0 0 0 7.16 1.08h150a67.91 67.91 0 0 1 67.83 67.83v122.67a67.91 67.91 0 0 1-67.83 67.83h-126V797a88.1 88.1 0 0 0-88-88H185.91a88.1 88.1 0 0 0-88 88v64.6a88.1 88.1 0 0 0 88 88h410.31a88.1 88.1 0 0 0 88-88v-8.31h126a116 116 0 0 0 115.87-115.83V614.79A116 116 0 0 0 810.26 499h-150a23.36 23.36 0 0 0-3.76 0.3c-6.52-74-68.81-132.2-144.46-132.2S374.1 425.31 367.58 499.3a23.36 23.36 0 0 0-3.76-0.3h-150a67.9 67.9 0 0 1-67.83-67.82V286.73a67.91 67.91 0 0 1 67.83-67.83h126v8.1a88.1 88.1 0 0 0 87.96 88z m208.44 546.6a40 40 0 0 1-40 40H185.91a40 40 0 0 1-40-40V797a40 40 0 0 1 40-40h410.31a40 40 0 0 1 40 40zM512 415.06a97 97 0 1 1-97 97 97.15 97.15 0 0 1 97-97zM387.78 162.4a40 40 0 0 1 40-40h410.31a40 40 0 0 1 40 40V227a40 40 0 0 1-40 40H427.78a40 40 0 0 1-40-40z" p-id="4613"></path></svg>