<?xml version="1.0" standalone="no"?><!DOCTYPE svg PUBLIC "-//W3C//DTD SVG 1.1//EN" "http://www.w3.org/Graphics/SVG/1.1/DTD/svg11.dtd"><svg t="1672797541523" class="icon" viewBox="0 0 1028 1024" version="1.1" xmlns="http://www.w3.org/2000/svg" p-id="8520" xmlns:xlink="http://www.w3.org/1999/xlink" width="200.78125" height="200"><path d="M391.869261 773.877043l-152.40467-149.914397L143.638911 879.564202l248.23035-105.687159z m489.089494-479.228016L723.673152 132.48249 267.754086 582.225681l163.461478 169.537743 449.743191-457.114397z m129.593774-123.915953c21.316732-24.006226 0-70.12607 0-70.12607s-41.637354-46.119844-89.550194-81.083269c-47.91284-34.963424-84.868482 0-84.868483 0L755.050584 100.607004l164.656809 164.059144c0.099611 0 69.428794-69.926848 90.845136-93.933074z" p-id="8521"></path><path d="M859.143969 1024h-694.287938C73.911284 1024 0 950.088716 0 859.143969v-694.287938C0 73.911284 73.911284 0 164.856031 0h495.165759v69.727626H164.856031C112.361089 69.727626 69.727626 112.361089 69.727626 164.856031v694.387549c0 52.395331 42.633463 95.128405 95.128405 95.128404h694.387549c52.395331 0 95.128405-42.633463 95.128404-95.128404V364.077821h69.727627v495.165759c-0.099611 90.845136-74.010895 164.75642-164.955642 164.75642z" p-id="8522"></path><path d="M850.677043 493.571984v196.333074c0 90.845136-73.911284 164.856031-164.856031 164.856031h-196.233463v-69.727626h196.333074c52.395331 0 95.128405-42.633463 95.128404-95.128405V493.571984" p-id="8523"></path><path d="M204.202335 208.18677m-34.863814 0a34.863813 34.863813 0 1 0 69.727627 0 34.863813 34.863813 0 1 0-69.727627 0Z" p-id="8524"></path><path d="M204.202335 307.797665v199.22179-199.22179m34.863813-34.863813h-69.727627v268.949416h69.727627V272.933852z" p-id="8525"></path></svg>