<?xml version="1.0" standalone="no"?><!DOCTYPE svg PUBLIC "-//W3C//DTD SVG 1.1//EN" "http://www.w3.org/Graphics/SVG/1.1/DTD/svg11.dtd"><svg t="1672798029169" class="icon" viewBox="0 0 1104 1024" version="1.1" xmlns="http://www.w3.org/2000/svg" p-id="23920" xmlns:xlink="http://www.w3.org/1999/xlink" width="215.625" height="200"><path d="M1063.331536 747.989218h-69.002695V511.309973a34.501348 34.501348 0 0 0-34.501348-34.501348H581.692722V276.010782h69.002696a34.501348 34.501348 0 0 0 34.501347-34.501348v-207.008086a34.501348 34.501348 0 0 0-34.501347-34.501348h-207.008086A34.501348 34.501348 0 0 0 414.016173 34.501348v207.008086a34.501348 34.501348 0 0 0 34.501347 34.501348h69.002696v200.797843H138.005391a34.501348 34.501348 0 0 0-34.501348 34.501348v236.679245h-69.002695a34.501348 34.501348 0 0 0-34.501348 34.501348v207.008086a34.501348 34.501348 0 0 0 34.501348 34.501348h207.008086a34.501348 34.501348 0 0 0 34.501348-34.501348v-207.008086a34.501348 34.501348 0 0 0-34.501348-34.501348h-69.002695V545.811321h345.013477v202.177897h-69.002696a34.501348 34.501348 0 0 0-34.501347 34.501348v207.008086a34.501348 34.501348 0 0 0 34.501347 34.501348h207.008086a34.501348 34.501348 0 0 0 34.501348-34.501348v-207.008086a34.501348 34.501348 0 0 0-34.501348-34.501348h-69.002695V545.811321h345.013477v202.177897h-69.002695a34.501348 34.501348 0 0 0-34.501348 34.501348v207.008086a34.501348 34.501348 0 0 0 34.501348 34.501348h207.008086a34.501348 34.501348 0 0 0 34.501348-34.501348v-207.008086a34.501348 34.501348 0 0 0-40.711591-34.501348zM483.018868 69.002695h138.005391v138.005391H483.018868zM207.008086 954.997305H69.002695v-138.005391h138.005391z m414.016173 0H483.018868v-138.005391h138.005391z m414.016172 0h-138.005391v-138.005391h138.005391z" p-id="23921"></path></svg>