<?xml version="1.0" standalone="no"?><!DOCTYPE svg PUBLIC "-//W3C//DTD SVG 1.1//EN" "http://www.w3.org/Graphics/SVG/1.1/DTD/svg11.dtd"><svg t="1672739784482" class="icon" viewBox="0 0 1024 1024" version="1.1" xmlns="http://www.w3.org/2000/svg" p-id="2026" xmlns:xlink="http://www.w3.org/1999/xlink" width="200" height="200"><path d="M515.050667 53.333333c112.128 0 202.602667 94.08 205.632 210.496l0.085333 6.037334-0.021333 60.8H864v597.333333h-704v-597.333333h149.312l0.021333-60.8c0-119.168 91.648-216.533333 205.717334-216.533334z m284.949333 341.333334h-576v469.333333h576v-469.333333z m-170.666667 106.666666v234.666667h-234.666666v-234.666667h234.666666z m-64 64h-106.666666v106.666667h106.666666v-106.666667z m-50.282666-448c-76.202667 0-139.050667 65.066667-141.653334 147.264l-0.064 5.269334-0.021333 60.8h283.434667v-60.8c0-84.650667-63.872-152.533333-141.696-152.533334z" p-id="2027"></path></svg>