<?xml version="1.0" standalone="no"?><!DOCTYPE svg PUBLIC "-//W3C//DTD SVG 1.1//EN" "http://www.w3.org/Graphics/SVG/1.1/DTD/svg11.dtd"><svg t="1672798144955" class="icon" viewBox="0 0 1024 1024" version="1.1" xmlns="http://www.w3.org/2000/svg" p-id="25069" xmlns:xlink="http://www.w3.org/1999/xlink" width="200" height="200"><path d="M414.830845 237.861476m-183.543026 0a183.543027 183.543027 0 1 0 367.086053 0 183.543027 183.543027 0 1 0-367.086053 0Z" fill="#E6E6E6" p-id="25070"></path><path d="M512 453.793518c-60.561682 0-117.498194-23.58367-160.321452-66.406928-42.823258-42.823258-66.406928-99.759769-66.406927-160.321452 0-60.561682 23.58367-117.498194 66.406927-160.321451S451.438318 0.335703 512 0.335703c60.561682 0 117.498194 23.58367 160.321452 66.406928s66.406928 99.760825 66.406927 160.321451c0 60.561682-23.58367 117.498194-66.406927 160.321452-42.823258 42.824313-99.759769 66.407984-160.321452 66.407984z m0-388.677675c-89.299134 0-161.949295 72.650161-161.949295 161.949295S422.700866 389.014433 512 389.014433s161.949295-72.650161 161.949295-161.949295S601.299134 65.115843 512 65.115843zM425.627184 885.658656H36.948454c-17.88833 0-32.39007-14.500685-32.39007-32.39007V507.77732c0-17.88833 14.500685-32.39007 32.39007-32.390071h388.67873c17.88833 0 32.39007 14.500685 32.39007 32.390071v345.491266c-0.001056 17.889386-14.50174 32.39007-32.39007 32.39007z m-356.28866-64.779085H393.237113V540.16739H69.338524v280.712181zM987.051546 885.658656H598.372816c-17.88833 0-32.39007-14.500685-32.39007-32.39007V507.77732c0-17.88833 14.500685-32.39007 32.39007-32.390071H987.051546c17.88833 0 32.39007 14.500685 32.39007 32.390071v99.254103c0 17.88833-14.500685 32.39007-32.39007 32.39007s-32.39007-14.500685-32.39007-32.39007v-66.864033H630.762887v280.712181h323.898589v-89.755183c0-17.88833 14.500685-32.39007 32.39007-32.39007s32.39007 14.500685 32.39007 32.39007v122.145253c0 17.88833-14.50174 32.389014-32.39007 32.389015z" p-id="25071"></path><path d="M231.265649 540.174779c-4.619612 0-9.312066-0.993386-13.77016-3.091002-16.185534-7.617715-23.131843-26.913254-15.515184-43.098787l86.372817-183.543027c7.617715-16.185534 26.912198-23.131843 43.098787-15.515184 16.185534 7.61666 23.131843 26.913254 15.515184 43.098788l-86.372817 183.543027c-5.519043 11.728495-17.17153 18.606186-29.328627 18.606185zM771.141674 540.174779c-12.158153 0-23.809584-6.877691-29.328627-18.606185L655.440231 338.025567c-7.61666-16.18659-0.670351-35.482128 15.515183-43.098788 16.184478-7.614548 35.481072-0.670351 43.098788 15.515184l86.372817 183.543027c7.61666 16.18659 0.670351 35.481072-15.515184 43.098787a32.265501 32.265501 0 0 1-13.770161 3.091002zM231.287819 1015.218936c-17.88833 0-32.39007-14.500685-32.390071-32.39007V853.268586c0-17.88833 14.500685-32.39007 32.390071-32.390071s32.39007 14.500685 32.39007 32.390071V982.828866c-0.001056 17.88833-14.50174 32.39007-32.39007 32.39007zM792.712181 1015.218936c-17.88833 0-32.39007-14.500685-32.39007-32.39007V853.268586c0-17.88833 14.500685-32.39007 32.39007-32.390071s32.39007 14.500685 32.390071 32.390071V982.828866c0 17.88833-14.50174 32.39007-32.390071 32.39007z" p-id="25072"></path><path d="M987.051546 1023.428882H36.948454c-17.88833 0-32.39007-14.500685-32.39007-32.39007S19.060124 958.649798 36.948454 958.649798h950.103092c17.88833 0 32.39007 14.500685 32.39007 32.39007S1004.939876 1023.428882 987.051546 1023.428882z" p-id="25073"></path></svg>