<?xml version="1.0" standalone="no"?><!DOCTYPE svg PUBLIC "-//W3C//DTD SVG 1.1//EN" "http://www.w3.org/Graphics/SVG/1.1/DTD/svg11.dtd"><svg t="1672798526742" class="icon" viewBox="0 0 1024 1024" version="1.1" xmlns="http://www.w3.org/2000/svg" p-id="38422" xmlns:xlink="http://www.w3.org/1999/xlink" width="200" height="200"><path d="M792.278054 1024H231.849057A232.103277 232.103277 0 0 1 0 792.150943V231.849057A232.103277 232.103277 0 0 1 231.849057 0h560.428997a232.103277 232.103277 0 0 1 231.721946 231.849057v560.301886a232.103277 232.103277 0 0 1-231.721946 231.849057zM231.849057 127.110228A104.865938 104.865938 0 0 0 127.110228 231.849057v560.301886a104.865938 104.865938 0 0 0 104.738829 104.738829h560.428997a104.738828 104.738828 0 0 0 104.611718-104.738829V231.849057A104.865938 104.865938 0 0 0 792.278054 127.110228z" p-id="38423"></path><path d="M779.821251 330.486594H578.60576a44.48858 44.48858 0 0 1 0-88.97716h201.215491a44.48858 44.48858 0 0 1 0 88.97716zM779.821251 557.759682H578.60576a44.48858 44.48858 0 0 1 0-88.97716h201.215491a44.48858 44.48858 0 0 1 0 88.97716zM779.821251 785.032771H578.60576a44.48858 44.48858 0 0 1 0-88.97716h201.215491a44.48858 44.48858 0 0 1 0 88.97716zM297.565045 634.28004a31.142006 31.142006 0 0 1-22.371401-9.279047L165.243297 514.669315A31.777557 31.777557 0 1 1 209.731877 470.307845l87.833168 87.960278 158.633565-159.269116a31.777557 31.777557 0 0 1 44.86991 44.997021L320.063555 625.000993a31.650447 31.650447 0 0 1-22.49851 9.279047z" p-id="38424"></path></svg>