<?xml version="1.0" standalone="no"?><!DOCTYPE svg PUBLIC "-//W3C//DTD SVG 1.1//EN" "http://www.w3.org/Graphics/SVG/1.1/DTD/svg11.dtd"><svg t="1672741831953" class="icon" viewBox="0 0 1024 1024" version="1.1" xmlns="http://www.w3.org/2000/svg" p-id="9644" xmlns:xlink="http://www.w3.org/1999/xlink" width="200" height="200"><path d="M846.6 150.6H704.1v48h142v681.6H178V198.6h142v-48H177.6c-27.3 0-49.6 21.4-49.6 47.7v682.3c0 26.2 22.3 47.7 49.6 47.7h668.9c27.3 0 49.6-21.4 49.6-47.7V198.3c0.1-26.2-22.3-47.7-49.5-47.7z" fill="#999999" p-id="9645"></path><path d="M593.7 256H429c-43.6 0-78.9-35.3-78.9-78.9 0-43.6 35.3-78.9 78.9-78.9h164.7c43.6 0 78.9 35.3 78.9 78.9 0 43.5-35.3 78.9-78.9 78.9zM257.1 379h257v50h-257zM257.1 541h384.1v50H257.1zM257.1 703h511.7v50H257.1z" fill="#999999" p-id="9646"></path></svg>