<?xml version="1.0" standalone="no"?><!DOCTYPE svg PUBLIC "-//W3C//DTD SVG 1.1//EN" "http://www.w3.org/Graphics/SVG/1.1/DTD/svg11.dtd"><svg t="1672739956131" class="icon" viewBox="0 0 1024 1024" version="1.1" xmlns="http://www.w3.org/2000/svg" p-id="2172" xmlns:xlink="http://www.w3.org/1999/xlink" width="200" height="200"><path d="M501.333333 48.789333l132.501334 132.522667 187.52 0.021333-0.042667 187.434667 132.565333 132.565333-132.565333 132.501334 0.021333 187.52-187.498666-0.042667-132.48 132.565333-132.586667-132.565333L181.333333 821.333333 181.333333 633.834667l-132.522666-132.48 132.522666-132.586667L181.333333 181.333333l187.434667-0.021333L501.333333 48.789333zM501.333333 139.285333l-106.026666 106.026667H245.333333v149.973333l-106.026666 106.026667 106.026666 106.026667V757.333333l149.973334-0.021333 106.026666 106.048 106.026667-106.048 149.994667 0.021333-0.021334-149.973333 106.048-106.048-106.048-106.026667 0.021334-149.973333h-149.994667l-106.026667-106.026667z m131.370667 246.549334l45.248 45.248-203.648 203.648-143.296-143.296 45.248-45.269334 98.048 98.048 158.4-158.378666z" p-id="2173"></path></svg>